<svg xmlns="http://www.w3.org/2000/svg" width="18.801" height="17.87" viewBox="0 0 18.801 17.87">
  <g id="home" transform="translate(0 -12.676)">
    <g id="Group_37" data-name="Group 37" transform="translate(0 12.675)">
      <g id="Group_36" data-name="Group 36" transform="translate(0 0)">
        <path id="Path_13" data-name="Path 13" d="M18.485,20.615,10.05,12.929a.96.96,0,0,0-1.3,0L.316,20.615a.964.964,0,0,0,.649,1.677H2.312v7.7a.553.553,0,0,0,.553.553H7.489a.553.553,0,0,0,.553-.553V25.317h2.717v4.676a.553.553,0,0,0,.553.553h4.623a.553.553,0,0,0,.553-.553v-7.7h1.348a.964.964,0,0,0,.649-1.677Z" transform="translate(0 -12.675)" fill="#fff"/>
      </g>
    </g>
  </g>
</svg>